<?xml version="1.0" standalone="no"?>
<!DOCTYPE svg PUBLIC "-//W3C//DTD SVG 20010904//EN"
 "http://www.w3.org/TR/2001/REC-SVG-20010904/DTD/svg10.dtd">
<svg version="1.0" xmlns="http://www.w3.org/2000/svg"
 width="530.000000pt" height="530.000000pt" viewBox="0 0 530.000000 530.000000"
 preserveAspectRatio="xMidYMid meet">
<metadata>
Created by potrace 1.11, written by Peter Selinger 2001-2013
</metadata>
<g transform="translate(0.000000,530.000000) scale(0.100000,-0.100000)"
fill="#000000" stroke="none">
<path d="M2436 5263 c-2 -2 -23 -6 -47 -8 -56 -6 -137 -16 -158 -20 -9 -1 -36
-6 -61 -10 -71 -12 -77 -13 -179 -39 -388 -101 -745 -286 -1045 -541 -57 -48
-217 -205 -282 -276 -57 -63 -189 -243 -247 -336 -63 -103 -181 -332 -202
-393 -1 -3 -4 -12 -7 -20 -49 -126 -116 -352 -132 -440 -3 -19 -8 -46 -11 -60
-3 -14 -8 -43 -11 -65 -3 -22 -7 -51 -10 -65 -18 -111 -25 -410 -11 -570 7
-90 29 -235 46 -310 5 -25 12 -56 15 -70 17 -86 87 -299 127 -388 11 -24 27
-62 36 -85 16 -41 27 -62 101 -197 110 -202 254 -391 433 -570 104 -104 118
-116 229 -206 227 -183 562 -360 840 -443 19 -6 58 -17 85 -25 28 -9 61 -17
75 -20 14 -3 57 -12 95 -20 85 -18 124 -24 195 -32 30 -3 80 -9 110 -13 107
-13 473 -4 575 15 10 2 37 6 60 10 22 3 58 9 80 14 22 5 55 12 74 15 51 9 233
61 308 89 525 191 962 526 1277 979 95 138 206 339 254 462 8 22 18 45 22 50
13 17 106 310 116 365 3 14 11 52 19 85 7 33 17 87 20 120 4 33 9 63 11 67 23
38 23 540 0 678 -8 49 -20 125 -21 140 -5 45 -52 221 -87 330 -60 185 -154
391 -249 548 -42 69 -162 240 -195 279 -11 11 -35 40 -54 64 -38 46 -191 202
-260 264 -185 167 -447 331 -710 445 -82 36 -349 126 -399 135 -17 3 -64 12
-104 21 -39 8 -85 17 -102 19 -16 2 -52 6 -80 10 -27 4 -63 9 -80 12 -32 6
-454 11 -459 6z"/>
</g>
</svg>
